<svg xmlns="http://www.w3.org/2000/svg" width="34" height="24" fill="none"><path fill="#CF400B" d="M23.458.563a1 1 0 0 0-1.799.874l.9-.437zm-.856.527.995-.107-.019-.173-.076-.157zm.046.43.918.397.105-.242-.028-.262zm-.225.52-.918-.397-.166.385.158.388zm.211.52.986-.17-.019-.106-.04-.1zm.089.519.965.263.058-.214-.037-.218zm-.142.521-.965-.263-.074.273.079.27zm.146.5-.96.28.073.252.187.183zm.383.376.894-.448-.075-.15-.119-.116zm.232.463.986-.172-.026-.145-.066-.132zm.1.572-.985.171.103.595.574.185zm.598.193.886-.464-.19-.361-.388-.126zm.245.467-.886.464.125.24.229.143zm.451.284.952-.306-.111-.347-.309-.194zm.178.552-.952.306.1.313.266.192zm.426.308-.585.81.009.007.009.007zm.431.297-.567.824.058.039.062.031zm.478.239.973-.234-.11-.452-.415-.208zm.151.626-.972.234.173.717.735.047zm.642.041.87-.492-.266-.471-.54-.035zm.274.485-.87.492.151.27.277.136zm.477.236.935-.357-.14-.367-.353-.174zm.216.565-.934.356.242.636.68.008zm.655.007.762-.648-.295-.347-.455-.005zm.342.401-.762.648.063.074.076.06zm.402.32-.623.783.106.084.124.053zm.472.203.789-.615-.159-.203-.237-.102zm.352.452-.789.614.251.322.405.055zm.551.074.438-.9-.145-.07-.16-.021zm.468.227.779-.627-.14-.175-.202-.097zm.362.45-.779.627.38.472.593-.118zm.604-.119.671-.741-.372-.337-.492.097zm-.481.913a1 1 0 1 0 1.341-1.483l-.67.742zM22.559 1l-.9.437.044.09.9-.437.899-.437-.044-.09zm.043.09-.994.106.046.43.994-.106.995-.107-.046-.43zm.046.43-.918-.397-.225.52.918.397.918.397.225-.52zm-.225.52-.926.376.21.52.927-.377.927-.375-.211-.52zm.211.52-.986.168.09.52.985-.17.986-.168-.09-.52zm.089.519-.965-.263-.142.521.965.263.965.263.142-.521zm-.142.521-.96.28.146.5.96-.28.96-.279-.146-.5zm.146.5-.7.715.383.376.7-.715.7-.714-.383-.375zm.383.376-.893.45.232.462.893-.45.894-.448-.232-.462zm.232.463-.985.172.1.571.985-.171.985-.172-.1-.572zm.1.572-.308.951.598.194.308-.952.308-.951-.598-.194zm.598.193-.886.464.245.467.886-.464.886-.464-.245-.467zm.245.467-.532.847.451.284.532-.847.532-.847-.451-.283zm.451.284-.952.306.178.552.952-.306.952-.305-.178-.553zm.178.552-.586.811.427.308.585-.811.585-.81-.426-.308zm.426.308-.567.824.431.297.567-.824.567-.824-.431-.297zm.431.297-.447.894.478.24.447-.895.448-.894-.479-.24zm.478.239-.972.234.151.626.972-.234.972-.234-.15-.626zm.151.626-.064.998.642.041.064-.998.063-.998-.64-.041zm.642.041-.871.492.274.485.87-.492.871-.492-.274-.485zm.274.485-.442.898.478.235.441-.897.442-.898-.477-.235zm.477.236-.934.356.216.565.934-.356.934-.357-.215-.565zm.216.565-.011 1 .655.007.011-1 .012-1-.656-.007zm.655.007-.761.648.341.401.762-.648.761-.648-.341-.401zm.342.401-.623.782.402.32.623-.781.623-.782-.402-.32zm.402.32-.393.92.472.202.393-.92.393-.919-.472-.202zm.472.203-.789.614.352.452.789-.614.789-.615-.352-.452zm.352.452-.133.99.551.075.133-.991.134-.991-.552-.075zm.551.074-.437.899.468.227.437-.9.437-.898-.467-.228zm.468.227-.78.627.363.45.78-.627.778-.627-.362-.45zm.362.45.194.981.604-.119-.194-.98-.194-.982-.603.12zm.604-.119-.67.742.189.171.67-.741.671-.742-.189-.171z"/><path fill="#CF400B" d="M20.57 22.385a1 1 0 0 0 1.782.909l-.891-.454zm.936.366.891.454.182-.356-.114-.384zm-.128-.433-.9-.437-.17.35.111.372zm.247-.51.9.437.17-.352-.113-.374zm-.162-.535-.999-.046-.008.172.05.164zm.025-.55-.744-.669-.238.266-.017.357zm.375-.418.744.669.078-.087.056-.103zm.248-.456.879.479.064-.119.03-.13zm.125-.53-.787-.616-.136.173-.05.214zm.325-.414-.509-.861-.162.096-.116.148zm.497-.294.51.86.482-.285.008-.562zm.009-.629-.66-.751-.334.293-.006.445zm.402-.353.66.752.173-.152.09-.213zm.21-.5-.41-.911-.36.161-.153.364zm.532-.238.41.912.271-.122.16-.25zm.283-.441-.825-.566-.008.013-.008.012zm.298-.434.824.565.024-.034.02-.035zm.269-.471-.131-.992-.492.065-.246.43zm.64-.085.13.992.689-.092.155-.676zm.143-.627-.301-.953-.546.172-.128.558zm.536-.17.301.954.268-.084.185-.212zm.352-.402-.066-.998-.415.027-.273.313zm.602-.04.067.997.655-.043.22-.62zm.22-.619-.332-.943-.45.159-.16.449zm.506-.177.332.943.047-.017.044-.02zm.474-.223.424.906.06-.027.054-.035zm.442-.281.012-1-.299-.004-.251.16zm.583.007-.012 1 .415.005.297-.291zm.393-.386-.35-.937-.199.074-.151.149zm.49-.184.246-.969-.303-.077-.293.11zm.552.14-.245.97.497.126.393-.33zm.468-.393.118-.994-.43-.05-.332.279zm.533.063.15-.989-.016-.002-.016-.002zm-.065 1.001a1 1 0 1 0 .3-1.977l-.15.989zm-10.47 9.67.892.455.045-.09-.89-.453-.891-.455-.046.09zm.046-.088.959-.286-.129-.432-.958.285-.959.285.129.433zm-.128-.433.9.436.246-.509-.9-.437-.899-.436-.247.509zm.247-.51.957-.289-.162-.535-.957.29-.957.289.162.535zm-.162-.535.999.046.025-.55-.999-.047-.999-.045-.025.55zm.025-.55.744.668.375-.417-.744-.669-.744-.668-.375.417zm.375-.418.878.48.249-.457-.878-.479-.878-.478-.25.456zm.248-.456.974.23.125-.53-.974-.23-.973-.229-.125.53zm.125-.53.787.617.325-.414-.787-.617-.787-.617-.325.415zm.325-.414.509.86.497-.293-.509-.861-.509-.86-.497.293zm.497-.294 1 .013.009-.628-1-.014-1-.013-.009.628zm.009-.629.66.752.401-.353-.66-.752-.659-.751-.402.353zm.402-.353.922.387.21-.5-.923-.386-.922-.387-.21.5zm.21-.5.41.913.532-.24-.41-.911-.41-.913-.532.24zm.532-.238.842.54.283-.441-.842-.54-.841-.54-.284.44zm.283-.441.825.565.297-.434-.824-.565-.825-.566-.298.434zm.298-.434.868.496.269-.471-.868-.496-.869-.496-.269.47zm.269-.471.13.991.64-.084-.13-.992-.132-.991-.64.084zm.64-.085.974.224.143-.627-.974-.224-.975-.223-.144.627zm.143-.627.301.954.536-.17-.3-.953-.302-.954-.536.17zm.536-.17.754.658.351-.403-.753-.657-.754-.658-.351.403zm.352-.402.066.997.603-.04-.067-.998-.066-.997-.602.04zm.602-.04.942.335.22-.618-.942-.336-.942-.335-.22.618zm.22-.619.332.944.506-.178-.332-.943-.332-.944-.506.178zm.506-.177.424.905.474-.222-.424-.905-.423-.906-.475.222zm.474-.223.538.844.442-.282-.538-.843-.538-.843-.441.282zm.442-.281-.012 1 .583.007.012-1 .012-1-.583-.007zm.583.007.7.713.394-.386-.7-.713-.701-.714-.394.386zm.393-.386.35.936.49-.183-.35-.937-.35-.936-.49.183zm.49-.184-.245.97.552.14.245-.97.246-.969-.552-.14zm.552.14.645.765.467-.394-.644-.764-.644-.765-.468.394zm.468-.393-.118.992.533.064.118-.993.118-.993-.533-.064zm.533.063-.15.989.085.012.15-.988.15-.99-.085-.012z"/><path fill="#CF400B" d="M1 10.624a1 1 0 0 0 0 2v-2m.1 1v1h.105l.103-.022zm.42-.09.4-.917-.294-.127-.314.066zm.52.227-.4.917.385.167.388-.156zm.52-.21-.165-.986-.107.018-.101.04zm.52-.086.306-.952-.231-.074-.24.04zm.52.167-.306.952.142.046.15.002zm.52.008-.014 1 .153.002.146-.044zm.52-.155.116-.993-.204-.024-.197.058zm.52.06.44-.898-.154-.075-.17-.02zm.52.255-.44.898.522.255.48-.326zm.52-.354.214-.977-.42-.092-.356.242zm.52.114-.214.977.24.052.235-.064zm.52-.14.45-.893-.342-.173-.37.1zm.52.262-.45.893.277.14.308-.042zm.52-.07-.132-.992h-.003zm.52-.07.132.99.06-.007.057-.015zm.52-.134.59-.807-.381-.28-.458.119zm.52.38-.59.807.588.43.59-.428zm.52-.377.363-.932-.509-.198-.442.32zm.52.202-.363.932.284.11.297-.066zm.52-.116.51-.86-.342-.202-.386.086zm.52.308-.51.86.583.345.536-.412zm.52-.4.211-.977-.453-.098-.367.283zm.52.113-.211.977.06.014.063.005zm.52.046-.088.996.078.007.079-.005zm.52-.036.457-.89-.248-.127-.278.02zm.52.267-.457.89.395.203.416-.157zm.52-.196-.032-1-.166.005-.156.06zm.52-.017.424-.905-.217-.102-.239.008zm.52.244-.424.905.492.23.46-.286zm.52-.324.198-.98-.389-.079-.337.21zm.52.105.23-.973-.016-.004-.015-.003zm.52.123-.23.973.277.066.27-.09zm.52-.174-.028-1-.149.005-.14.047zm.52-.014.49-.873-.242-.135-.276.008zm.52.291-.49.872.569.319.52-.39zm.52-.39.563-.826-.59-.402-.572.428zm.52.355-.563.827.304.206.365-.038zm.52-.055.106.994.231-.024.197-.125zm.52-.328.014-1-.297-.005-.25.159zm.52.007.517-.856-.232-.14-.27-.004zm.52.314-.517.856.348.21.396-.092zm.52-.121-.022-1-.104.002-.101.024zm.52-.012.112-.993-.067-.008-.067.002zm.52.059-.112.994.013.001.013.001zm.52.045.138-.99-.026-.004-.026-.002zm.52.072-.138.99.33.047.291-.161zm.52-.287.199-.98-.36-.072-.322.177zm.52.106-.199.98.263.053.254-.085zm.52-.174.429-.904-.364-.173-.383.129zm.52.247-.429.903.26.123.286-.033zm.52-.062-.008-1h-.055l-.054.007zm.52-.004.008 1h.097l.094-.02zm.52-.106.08-.996-.14-.012-.14.029zm.52.042.085-.996h-.005zm.52.044-.085.997.018.001.018.001zm.52.026-.049.999.133.006.13-.028zm.34-.075h1v-1.243l-1.214.266zm-1 .082a1 1 0 0 0 2 0h-2M1 11.624v1h.1v-2H1zm.1 0 .208.978.42-.09-.208-.978-.208-.978-.42.09zm.42-.09-.4.917.52.227.4-.917.4-.917-.52-.226zm.52.227.373.928.52-.21-.373-.927-.373-.928-.52.209zm.52-.21.165.987.52-.087-.165-.986-.165-.986-.52.086zm.52-.086-.306.952.52.167.306-.952.306-.952-.52-.167zm.52.167-.014 1 .52.007.014-1 .014-1-.52-.007zm.52.008.285.958.52-.155-.285-.958-.285-.959-.52.155zm.52-.155-.116.993.52.06.116-.993.116-.993-.52-.06zm.52.06-.44.899.52.254.44-.898.44-.898-.52-.255zm.52.255.562.827.52-.354-.562-.827-.562-.827-.52.354zm.52-.354-.214.977.52.114.214-.977.214-.977-.52-.114zm.52.114.261.965.52-.14-.261-.966-.261-.965-.52.14zm.52-.14-.45.892.52.263.45-.893.45-.893-.52-.262zm.52.262.135.99.52-.07-.135-.99-.135-.992-.52.07zm.52-.07.132.99.52-.07-.132-.99-.132-.992-.52.07zm.52-.07.249.968.52-.133-.249-.969-.25-.968-.519.133zm.52-.134-.59.807.52.38.59-.807.59-.807-.52-.38zm.52.38.588.81.52-.378-.588-.81-.588-.808-.52.377zm.52-.377-.363.931.52.203.363-.932.363-.931-.52-.203zm.52.202.218.976.52-.116-.218-.976-.218-.976-.52.116zm.52-.116-.51.86.52.309.51-.861.51-.86-.52-.309zm.52.308.61.793.52-.4-.61-.792-.61-.793-.52.399zm.52-.4-.211.978.52.112.211-.977.211-.978-.52-.112zm.52.113-.088.996.52.046.088-.996.088-.996-.52-.046zm.52.046.069.998.52-.036-.069-.998-.069-.998-.52.036zm.52-.036-.457.89.52.267.457-.89.457-.89-.52-.266zm.52.267.354.936.52-.197-.354-.935-.354-.936-.52.197zm.52-.196.032 1 .52-.017-.032-1-.032-1-.52.017zm.52-.017-.424.906.52.243.424-.905.424-.906-.52-.243zm.52.244.528.849.52-.324-.528-.849-.528-.849-.52.323zm.52-.324-.199.98.52.106.199-.98.198-.98-.52-.106zm.52.105-.23.974.52.122.23-.973.23-.973-.52-.123zm.52.123.317.948.52-.174-.317-.948-.317-.948-.52.174zm.52-.174.028 1 .52-.015-.028-1-.028-.999-.52.015zm.52-.014-.49.872.52.291.49-.872.49-.872-.52-.292zm.52.291.6.8.52-.388-.6-.801-.6-.8-.52.389zm.52-.39-.563.828.52.354.563-.827.563-.826-.52-.355zm.52.355.106.995.52-.056-.106-.994-.106-.995-.52.056zm.52-.055.534.845.52-.328-.534-.845-.534-.846-.52.328zm.52-.328-.015 1 .52.007.015-1 .014-1-.52-.007zm.52.007-.517.856.52.314.517-.856.517-.856-.52-.314zm.52.314.227.974.52-.121-.227-.974-.227-.974-.52.121zm.52-.121.022 1 .52-.012-.022-1-.022-1-.52.012zm.52-.012-.112.994.52.059.112-.994.112-.994-.52-.058zm.52.059-.086.996.52.045.086-.996.086-.996-.52-.045zm.52.045-.138.99.52.073.138-.99.138-.99-.52-.073zm.52.072.483.876.52-.287-.483-.876-.483-.875-.52.287zm.52-.287-.199.98.52.106.199-.98.199-.98-.52-.106zm.52.106.318.948.52-.174-.318-.948-.318-.948-.52.174zm.52-.174-.429.903.52.247.429-.903.429-.904-.52-.247zm.52.247.117.993.52-.062-.117-.993-.117-.993-.52.061zm.52-.062.008 1 .52-.004-.008-1-.008-1-.52.004zm.52-.004.2.98.52-.106-.2-.98-.2-.98-.52.106zm.52-.106-.08.997.52.042.08-.997.08-.997-.52-.041zm.52.042-.085.997.52.044.085-.997.085-.996-.52-.044zm.52.044-.049 1 .52.025.049-1 .049-.998-.52-.025zm.52.026.214.977.34-.075-.213-.977-.215-.977-.34.075zm.34-.075h-1v.082h2v-.082z"/></svg>