<svg width="24" height="24" viewBox="0 0 24 24" fill="none" xmlns="http://www.w3.org/2000/svg">
<g clip-path="url(#clip0_0_1619)">
<path fill-rule="evenodd" clip-rule="evenodd" d="M14.0801 10.9107L14.1401 9.00068C14.0401 8.45068 13.5401 8.50068 13.3501 9.00068C13.1601 9.50068 13.1201 10.1407 13.0501 10.7207V11.0807H12.1601C11.3801 11.0807 10.5901 11.0207 9.80008 11.0207C9.40008 11.0007 9.00008 11.0007 8.66008 11.0007C8.65543 10.9474 8.65543 10.8939 8.66008 10.8407C8.66008 10.2307 8.59008 9.62068 8.55008 9.01068C8.51008 8.40068 7.81008 8.50068 7.77008 9.01068C7.73008 9.52068 7.65008 10.2307 7.63008 10.8507V11.0107H7.43008C6.14007 11.0607 5.33008 11.1507 4.05008 11.3007C3.31008 11.5007 3.56008 12.0507 4.26008 11.9507C4.96008 11.8507 4.97008 11.9507 5.56008 11.9507H7.63008V12.1307C7.63008 12.5707 7.63007 13.0207 7.70008 13.4607C7.75008 14.1107 7.82008 14.1207 7.90008 14.7707C8.04008 15.6907 8.30008 15.7107 8.68008 14.7707V13.4307V12.1007V11.9807H8.81008H12.1001H12.9201V13.3007C12.9201 14.0007 12.9201 14.0707 12.9901 14.7607C13.2401 15.8607 13.5001 15.5307 13.7701 14.7607C13.8501 13.9307 13.9201 13.7607 13.9801 12.9007V11.9607H15.4301C16.01 11.9762 16.5882 12.033 17.1601 12.1307C17.5901 12.1307 17.6701 11.7107 17.3101 11.4707C16.7056 11.3204 16.0904 11.2168 15.4701 11.1607C14.9901 11.1607 14.4701 11.0907 14.0201 11.0707C14.0701 11.0707 14.0701 11.0007 14.0801 10.9107Z" fill="#FBF8F4"/>
<path fill-rule="evenodd" clip-rule="evenodd" d="M23.6488 2.38028C23.6293 2.34845 23.6038 2.32082 23.5735 2.29901C23.5433 2.2772 23.509 2.26165 23.4727 2.25326C23.4364 2.24488 23.3987 2.24384 23.362 2.25019C23.3252 2.25655 23.2901 2.27018 23.2588 2.29028C21.7354 3.23868 20.5143 4.60205 19.7388 6.22028C19.495 6.69302 19.2812 7.18065 19.0988 7.68028C16.6988 7.57028 14.2988 7.39028 11.8888 7.30028C10.7788 7.30028 9.66875 7.24028 8.55875 7.30028C7.82875 7.30028 5.79875 7.30028 4.22875 7.42028C3.54414 7.43849 2.8677 7.57378 2.22875 7.82028C2.0432 7.92331 1.8831 8.06662 1.76023 8.23968C1.63736 8.41273 1.55484 8.61113 1.51875 8.82028C1.41948 9.52158 1.48103 10.2363 1.69875 10.9103C2.19275 12.5518 2.90584 14.1193 3.81875 15.5703C4.06011 16.0276 4.40201 16.4242 4.81875 16.7303C5.60136 16.9982 6.4216 17.14 7.24875 17.1503C8.41969 17.1772 9.59124 17.1439 10.7588 17.0503C11.4588 17.0003 12.1588 16.9803 12.8688 16.9803C14.3688 16.9803 15.8687 17.0303 17.3888 17.0403C17.3888 17.1503 17.3888 17.2703 17.3388 17.3903C17.3026 17.707 17.2024 18.0131 17.0443 18.2899C16.8861 18.5666 16.6733 18.8083 16.4188 19.0003C16.0074 19.2366 15.5508 19.3831 15.0788 19.4303C14.2848 19.5105 13.4863 19.5373 12.6888 19.5103L4.73875 19.5903C4.65379 19.5953 4.57378 19.6319 4.51453 19.693C4.45529 19.7541 4.42111 19.8352 4.41875 19.9203C4.42357 19.9769 4.44384 20.031 4.47734 20.0769C4.51085 20.1227 4.5563 20.1585 4.60875 20.1803C4.31363 20.4615 4.08182 20.8024 3.92875 21.1803C3.77679 21.5232 3.72435 21.902 3.77739 22.2733C3.83044 22.6447 3.98685 22.9936 4.22875 23.2803C4.48537 23.544 4.79921 23.7452 5.14601 23.8684C5.4928 23.9915 5.86326 24.0332 6.22875 23.9903C6.77234 23.9202 7.26864 23.6452 7.61621 23.2214C7.96378 22.7976 8.13639 22.2571 8.09875 21.7103C8.11866 21.2035 7.95536 20.7065 7.63875 20.3103C9.43875 20.3603 11.4188 20.4403 12.7188 20.4703H14.4188C14.2608 20.6816 14.1267 20.9096 14.0188 21.1503C13.8654 21.4923 13.8114 21.8706 13.8626 22.2419C13.9139 22.6132 14.0685 22.9626 14.3088 23.2503C14.5658 23.5134 14.8797 23.7142 15.2264 23.8373C15.5731 23.9604 15.9433 24.0024 16.3088 23.9603C16.8532 23.8902 17.3505 23.6156 17.6997 23.1921C18.0489 22.7686 18.2237 22.2281 18.1888 21.6803C18.2077 21.2939 18.1024 20.9116 17.8882 20.5895C17.6741 20.2674 17.3623 20.0223 16.9988 19.8903C17.583 19.4924 18.008 18.9009 18.1988 18.2203C18.4796 16.8102 18.6336 15.3778 18.6588 13.9403C18.8743 11.4073 19.4641 8.92032 20.4088 6.56028C21.0669 5.02871 22.1451 3.71472 23.5188 2.77028C23.555 2.75564 23.5876 2.73331 23.6144 2.70482C23.6412 2.67634 23.6614 2.64238 23.6738 2.6053C23.6862 2.56821 23.6903 2.52888 23.686 2.49003C23.6817 2.45118 23.669 2.41373 23.6488 2.38028ZM6.13875 22.9203C5.9348 22.9455 5.72783 22.9273 5.53139 22.867C5.33494 22.8067 5.15344 22.7056 4.99875 22.5703C4.86336 22.4338 4.76764 22.263 4.72184 22.0763C4.67604 21.8896 4.68189 21.6939 4.73875 21.5103C4.81829 21.1827 4.98402 20.8823 5.21875 20.6403C5.39354 20.4517 5.62556 20.326 5.87895 20.2825C6.13235 20.2391 6.39301 20.2803 6.62064 20.3998C6.84828 20.5193 7.03021 20.7104 7.13832 20.9437C7.24643 21.177 7.2747 21.4393 7.21875 21.6903C7.23027 21.9945 7.12472 22.2917 6.92382 22.5205C6.72292 22.7493 6.44195 22.8924 6.13875 22.9203ZM17.2188 21.6903C17.2323 21.9823 17.1378 22.2692 16.9534 22.496C16.7689 22.7229 16.5074 22.8739 16.2188 22.9203C16.0164 22.9446 15.8111 22.9261 15.6164 22.8658C15.4217 22.8054 15.2419 22.7048 15.0888 22.5703C14.9534 22.4338 14.8576 22.263 14.8118 22.0763C14.766 21.8896 14.7719 21.6939 14.8288 21.5103C14.9045 21.1812 15.0707 20.8798 15.3088 20.6403C15.4895 20.4894 15.7115 20.3965 15.9459 20.3738C16.1802 20.3511 16.416 20.3996 16.6223 20.5131C16.8286 20.6265 16.9959 20.7995 17.1023 21.0096C17.2088 21.2196 17.2493 21.4568 17.2188 21.6903ZM17.6388 13.7803C17.5387 14.4403 17.5588 15.4103 17.4788 16.3703C14.9888 16.2803 13.2088 16.1003 10.7188 16.1903H7.29875C6.61626 16.1616 5.94201 16.0301 5.29875 15.8003C5.11979 15.5983 4.95916 15.3808 4.81875 15.1503C3.72665 13.4197 2.95753 11.5054 2.54875 9.50028C2.54875 9.15028 2.54875 8.86028 2.72875 8.75028C3.24048 8.57025 3.77661 8.46909 4.31875 8.45028C7.52875 8.13028 9.12875 8.13028 18.8888 8.27028C18.3273 10.0711 17.9093 11.9135 17.6388 13.7803Z" fill="#FBF8F4"/>
</g>
<defs>
<clipPath id="clip0_0_1619">
<rect width="24" height="24" fill="white"/>
</clipPath>
</defs>
</svg>
