<svg width="28" height="28" viewBox="0 0 28 28" fill="none" xmlns="http://www.w3.org/2000/svg">
<path d="M4.92583 15.7499L14.0002 24.4999L23.0745 15.7499C24.6495 14.564 25.6668 12.6839 25.6668 10.5647C25.6668 6.98709 22.763 4.08325 19.1854 4.08325C17.0662 4.08325 15.1797 5.10759 14.0002 6.68259C12.8207 5.10759 10.9342 4.08325 8.81491 4.08325C5.23733 4.08325 2.3335 6.98709 2.3335 10.5647C2.3335 12.6839 3.35083 14.564 4.92583 15.7499ZM8.81491 5.24992C10.4774 5.24992 12.0664 6.04675 13.0662 7.38142L14.0002 8.62858L14.9341 7.382C15.9339 6.04675 17.5229 5.24992 19.1854 5.24992C22.1161 5.24992 24.5002 7.634 24.5002 10.5647C24.5002 12.2493 23.7249 13.7998 22.3722 14.8178L22.3156 14.8603L22.2642 14.9099L14.0002 22.8794L5.73608 14.9099L5.68475 14.8603L5.62816 14.8178C4.276 13.7998 3.50016 12.2493 3.50016 10.5647C3.50016 7.634 5.88425 5.24992 8.81491 5.24992Z" fill="#FBF8F4"/>
</svg>
