<svg width="23" height="22" viewBox="0 0 23 22" fill="none" xmlns="http://www.w3.org/2000/svg">
<path fill-rule="evenodd" clip-rule="evenodd" d="M12.6055 8.66458L12.6655 6.75458C12.5655 6.20458 12.0655 6.25458 11.8755 6.75458C11.6855 7.25458 11.6455 7.89458 11.5755 8.47458V8.83458H10.6855C9.90547 8.83458 9.11547 8.77458 8.32547 8.77458C7.92547 8.75458 7.52547 8.75458 7.18547 8.75458C7.18082 8.70135 7.18082 8.64782 7.18547 8.59458C7.18547 7.98458 7.11547 7.37458 7.07547 6.76458C7.03547 6.15458 6.33547 6.25458 6.29547 6.76458C6.25547 7.27458 6.17547 7.98458 6.15547 8.60458V8.76458H5.95547C4.66547 8.81458 3.85547 8.90458 2.57547 9.05458C1.83547 9.25458 2.08547 9.80458 2.78547 9.70458C3.48547 9.60458 3.49547 9.70458 4.08547 9.70458H6.15547V9.88458C6.15547 10.3246 6.15547 10.7746 6.22547 11.2146C6.27547 11.8646 6.34547 11.8746 6.42547 12.5246C6.56547 13.4446 6.82547 13.4646 7.20547 12.5246V11.1846V9.85458V9.73458H7.33547H10.6255H11.4455V11.0546C11.4455 11.7546 11.4455 11.8246 11.5155 12.5146C11.7655 13.6146 12.0255 13.2846 12.2955 12.5146C12.3755 11.6846 12.4455 11.5146 12.5055 10.6546V9.71458H13.9555C14.5354 9.73011 15.1136 9.78692 15.6855 9.88458C16.1155 9.88458 16.1955 9.46458 15.8355 9.22458C15.231 9.07435 14.6158 8.97072 13.9955 8.91458C13.5155 8.91458 12.9955 8.84458 12.5455 8.82458C12.5955 8.82458 12.5955 8.75458 12.6055 8.66458Z" fill="#FBF8F4"/>
<path fill-rule="evenodd" clip-rule="evenodd" d="M22.1761 0.134184C22.1567 0.102357 22.1311 0.0747279 22.1009 0.0529172C22.0706 0.0311066 22.0363 0.0155534 22 0.00717044C21.9637 -0.00121257 21.9261 -0.00225673 21.8893 0.00409913C21.8526 0.010455 21.8175 0.0240829 21.7861 0.0441835C20.2627 0.992585 19.0416 2.35595 18.2661 3.97418C18.0223 4.44692 17.8085 4.93456 17.6261 5.43418C15.2261 5.32418 12.8261 5.14418 10.4161 5.05418C9.3061 5.05418 8.1961 4.99418 7.0861 5.05418C6.3561 5.05418 4.3261 5.05418 2.75609 5.17418C2.07149 5.1924 1.39505 5.32769 0.756095 5.57418C0.57054 5.67721 0.41044 5.82053 0.28757 5.99358C0.1647 6.16664 0.0821855 6.36504 0.0460949 6.57418C-0.0531754 7.27549 0.00837734 7.99018 0.226095 8.66418C0.720096 10.3057 1.43319 11.8732 2.34609 13.3242C2.58745 13.7815 2.92936 14.1781 3.3461 14.4842C4.1287 14.7522 4.94895 14.8939 5.77609 14.9042C6.94704 14.9311 8.11859 14.8978 9.28609 14.8042C9.98609 14.7542 10.6861 14.7342 11.3961 14.7342C12.8961 14.7342 14.3961 14.7842 15.9161 14.7942C15.9161 14.9042 15.9161 15.0242 15.8661 15.1442C15.83 15.4609 15.7298 15.767 15.5716 16.0438C15.4134 16.3205 15.2006 16.5623 14.9461 16.7542C14.5348 16.9905 14.0781 17.137 13.6061 17.1842C12.8121 17.2645 12.0137 17.2912 11.2161 17.2642L3.26609 17.3442C3.18113 17.3492 3.10113 17.3858 3.04188 17.4469C2.98263 17.508 2.94845 17.5891 2.94609 17.6742C2.95091 17.7308 2.97118 17.7849 3.00469 17.8308C3.03819 17.8766 3.08365 17.9124 3.1361 17.9342C2.84098 18.2154 2.60917 18.5563 2.45609 18.9342C2.30414 19.2771 2.25169 19.6559 2.30474 20.0272C2.35778 20.3986 2.51419 20.7475 2.75609 21.0342C3.01272 21.2979 3.32656 21.4992 3.67335 21.6223C4.02015 21.7454 4.39061 21.7871 4.75609 21.7442C5.29968 21.6741 5.79598 21.3991 6.14355 20.9753C6.49113 20.5515 6.66373 20.011 6.6261 19.4642C6.646 18.9574 6.4827 18.4604 6.16609 18.0642C7.96609 18.1142 9.94609 18.1942 11.2461 18.2242H12.9461C12.7882 18.4355 12.654 18.6635 12.5461 18.9042C12.3928 19.2462 12.3387 19.6245 12.39 19.9958C12.4412 20.3671 12.5958 20.7165 12.8361 21.0042C13.0932 21.2673 13.4071 21.4681 13.7537 21.5912C14.1004 21.7143 14.4706 21.7563 14.8361 21.7142C15.3805 21.6441 15.8778 21.3695 16.227 20.946C16.5762 20.5225 16.7511 19.982 16.7161 19.4342C16.7351 19.0478 16.6297 18.6655 16.4156 18.3434C16.2014 18.0213 15.8897 17.7762 15.5261 17.6442C16.1104 17.2463 16.5353 16.6548 16.7261 15.9742C17.0069 14.5641 17.1609 13.1317 17.1861 11.6942C17.4017 9.16124 17.9914 6.67423 18.9361 4.31418C19.5942 2.78261 20.6725 1.46863 22.0461 0.524184C22.0823 0.509548 22.115 0.487216 22.1418 0.458731C22.1685 0.430246 22.1888 0.396288 22.2012 0.359203C22.2135 0.322118 22.2177 0.282791 22.2133 0.24394C22.209 0.205089 22.1963 0.167641 22.1761 0.134184ZM4.66609 20.6742C4.46215 20.6994 4.25518 20.6812 4.05873 20.6209C3.86228 20.5606 3.68078 20.4595 3.52609 20.3242C3.3907 20.1877 3.29498 20.0169 3.24919 19.8302C3.20339 19.6435 3.20923 19.4478 3.26609 19.2642C3.34564 18.9366 3.51136 18.6362 3.74609 18.3942C3.92088 18.2056 4.1529 18.0799 4.4063 18.0364C4.65969 17.993 4.92035 18.0342 5.14799 18.1537C5.37562 18.2732 5.55755 18.4643 5.66566 18.6976C5.77377 18.9309 5.80204 19.1932 5.74609 19.4442C5.75761 19.7485 5.65206 20.0456 5.45116 20.2744C5.25026 20.5032 4.9693 20.6463 4.66609 20.6742ZM15.7461 19.4442C15.7596 19.7362 15.6652 20.0231 15.4807 20.2499C15.2963 20.4768 15.0348 20.6278 14.7461 20.6742C14.5437 20.6985 14.3385 20.68 14.1438 20.6197C13.9491 20.5594 13.7693 20.4587 13.6161 20.3242C13.4807 20.1877 13.385 20.0169 13.3392 19.8302C13.2934 19.6435 13.2992 19.4478 13.3561 19.2642C13.4318 18.9351 13.5981 18.6337 13.8361 18.3942C14.0168 18.2433 14.2389 18.1504 14.4732 18.1277C14.7076 18.105 14.9433 18.1536 15.1496 18.267C15.356 18.3804 15.5233 18.5534 15.6297 18.7635C15.7361 18.9735 15.7767 19.2107 15.7461 19.4442ZM16.1661 11.5342C16.0661 12.1942 16.0861 13.1642 16.0061 14.1242C13.5161 14.0342 11.7361 13.8542 9.24609 13.9442H5.8261C5.14361 13.9155 4.46935 13.784 3.8261 13.5542C3.64714 13.3522 3.4865 13.1347 3.3461 12.9042C2.25399 11.1736 1.48487 9.25929 1.07609 7.25418C1.07609 6.90418 1.07609 6.61418 1.25609 6.50418C1.76782 6.32415 2.30395 6.223 2.8461 6.20418C6.0561 5.88418 7.65609 5.88418 17.4161 6.02419C16.8546 7.82498 16.4367 9.6674 16.1661 11.5342Z" fill="#FBF8F4"/>
</svg>
