<svg width="233" height="12" viewBox="0 0 233 12" fill="none" xmlns="http://www.w3.org/2000/svg">
<path d="M223.246 1.84365C222.375 1.89952 221.591 1.89952 220.72 1.95538C219.588 2.01125 218.456 2.12299 217.237 2.17886C215.321 2.29059 213.405 2.51406 211.576 2.79341C209.573 3.12861 207.657 3.57556 205.828 4.19011C205.479 4.30184 205.131 4.46945 204.696 4.52532C204.26 4.63705 203.912 4.74879 203.476 4.86053C202.867 5.02813 202.344 5.13987 201.734 5.2516C201.038 5.36334 200.341 5.47507 199.644 5.53094C199.035 5.58681 198.425 5.58681 197.815 5.58681C197.206 5.58681 196.683 5.53094 196.074 5.53094C195.29 5.47507 194.506 5.36334 193.722 5.19573C192.938 5.02813 192.155 4.86053 191.371 4.63705C190.064 4.24598 188.758 3.79903 187.452 3.35209C186.842 3.12861 186.319 2.90514 185.71 2.6258C185.013 2.34646 184.316 2.06712 183.62 1.78778C183.097 1.56431 182.487 1.3967 181.878 1.2291C181.529 1.11736 181.094 1.06149 180.659 1.00563C180.223 0.949758 179.875 0.949758 179.439 0.89389C179.178 0.89389 178.917 0.89389 178.743 0.949758C178.394 1.00563 178.046 1.06149 177.697 1.11736C177.175 1.2291 176.652 1.3967 176.13 1.56431C175.085 1.89952 174.127 2.23472 173.082 2.56993C171.775 3.01688 170.556 3.40795 169.163 3.79903C168.379 4.0225 167.508 4.19011 166.724 4.35771C165.592 4.58118 164.547 4.69292 163.415 4.80466C162.37 4.91639 161.237 4.91639 160.192 4.97226C158.973 4.97226 157.754 4.91639 156.534 4.80466C154.967 4.63705 153.486 4.46945 151.919 4.24598C150.525 4.0225 149.132 3.74316 147.825 3.40795C146.519 3.01688 145.213 2.6258 143.906 2.17886C142.426 1.67604 140.945 1.17323 139.378 0.838022C138.768 0.670417 138.158 0.614549 137.462 0.502813C136.765 0.391077 135.981 0.391077 135.197 0.391077C134.413 0.391077 133.717 0.502813 132.933 0.614549C132.149 0.726285 131.452 0.949758 130.756 1.17323C129.101 1.73191 127.62 2.4582 126.14 3.18448C125.269 3.63143 124.398 4.07837 123.527 4.52532C122.83 4.86053 122.047 5.2516 121.263 5.58681C120.479 5.92202 119.608 6.20136 118.737 6.4807C118.302 6.59244 117.953 6.70417 117.518 6.76004C116.995 6.87178 116.386 6.92765 115.863 6.98351C115.602 6.98351 115.428 6.98351 115.166 6.98351C114.992 6.98351 114.818 6.98351 114.644 6.98351C114.208 6.92765 113.773 6.81591 113.338 6.70417C111.77 6.20136 110.289 5.58681 108.896 4.91639C108.199 4.58118 107.59 4.24598 106.98 3.8549C106.544 3.57556 106.109 3.35209 105.674 3.07275C104.541 2.40233 103.496 1.62018 102.277 1.00563C101.754 0.782154 101.232 0.558681 100.622 0.335209C100.274 0.223472 99.9256 0.167604 99.5772 0.111736C99.4901 0.111736 99.3159 0.0558681 99.2288 0.0558681C98.9676 0.0558681 98.7063 0 98.5321 0C98.445 0 98.2708 0 98.1838 0H98.0967C97.9225 0 97.6612 0 97.487 0.0558681C97.0516 0.111736 96.7032 0.167604 96.2678 0.223472C95.4839 0.391077 94.7001 0.558681 93.9163 0.782154C93.3067 0.949758 92.697 1.11736 92.0874 1.34083C91.652 1.45257 91.2165 1.62018 90.7811 1.73191C90.0843 1.95538 89.4747 2.17886 88.778 2.40233C88.4296 2.51406 88.0813 2.6258 87.82 2.73754C87.2103 2.96101 86.6007 3.24035 86.0782 3.46382C85.6427 3.63143 85.2073 3.79903 84.7718 4.0225C83.6396 4.46945 82.5945 4.97226 81.4624 5.41921C79.1109 6.42483 76.6724 7.43046 74.0597 8.15674C73.45 8.32435 72.9275 8.43608 72.3178 8.60369C71.6211 8.77129 70.8373 8.88303 70.0535 8.9389C69.7051 8.9389 69.4439 8.99477 69.0955 8.99477C68.573 8.99477 68.1375 8.99477 67.615 8.9389C66.9182 8.88303 66.2215 8.77129 65.6119 8.60369C64.9152 8.38022 64.2184 8.10088 63.6088 7.82154C62.5637 7.31872 61.6928 6.70417 60.8219 6.08962C60.3864 5.81028 59.951 5.47507 59.5155 5.19573C58.993 4.86053 58.3834 4.52532 57.8608 4.19011C57.3383 3.91077 56.9028 3.68729 56.2932 3.51969C55.7706 3.63143 55.4223 3.51969 55.0739 3.46382C54.7256 3.40795 54.3772 3.35209 54.0288 3.35209C53.7676 3.35209 53.5934 3.35209 53.3321 3.40795C52.9837 3.46382 52.7225 3.51969 52.3741 3.63143C52.1128 3.74316 51.7645 3.8549 51.5032 3.96664C51.2419 4.13424 50.9807 4.30184 50.8065 4.46945C50.371 4.80466 49.9356 5.13987 49.5872 5.47507C49.2388 5.75442 48.8905 5.97789 48.6292 6.25723C48.2808 6.53657 47.8454 6.87178 47.497 7.15112C46.7132 7.76567 45.8423 8.26848 44.8843 8.77129C44.1876 9.1065 43.4038 9.38584 42.62 9.66518C41.8361 9.83279 41.1394 9.94452 40.3556 10.0563C39.2234 10.1121 38.1783 10.1121 37.0462 10.0563C35.3043 9.88865 33.6496 9.55345 31.9949 9.1065C30.5144 8.65956 29.1209 8.21261 27.7275 7.65393C27.0307 7.37459 26.334 7.09525 25.6373 6.76004C24.9406 6.4807 24.2438 6.14549 23.5471 5.86615C22.8504 5.53094 22.1537 5.2516 21.4569 4.97226C20.7602 4.69292 19.9764 4.41358 19.1926 4.19011C17.712 3.74316 16.1444 3.46382 14.5768 3.51969C14.2284 3.51969 13.793 3.57556 13.4446 3.57556C13.0092 3.63143 12.6608 3.68729 12.3124 3.74316C11.9641 3.79903 11.6157 3.91077 11.3544 3.96664C11.0061 4.07837 10.6577 4.19011 10.3093 4.24598C8.48045 4.63705 6.99991 5.19573 5.60646 5.81028C4.38719 6.36896 3.16792 6.98351 2.12283 7.7098C1.60029 8.04501 1.16484 8.38022 0.729384 8.71542C0.555203 8.88303 0.381021 9.05063 0.293931 9.27411C0.293931 9.32997 0.20684 9.44171 0.20684 9.49758C0.11975 9.66518 0.11975 9.83279 0.032659 10.0004C-0.0544316 10.2239 0.032659 10.4473 0.293931 10.6149C0.555203 10.7267 0.903565 10.7825 1.25193 10.7267C1.5132 10.6708 1.68738 10.6149 1.94865 10.6149C2.29701 10.5591 2.55829 10.4473 2.90665 10.3356C3.3421 10.168 3.51628 9.77692 3.25501 9.49758C3.08083 9.32997 2.90665 9.27411 2.64538 9.21824C3.51628 8.60369 4.47428 8.04501 5.43228 7.48633C7.087 6.70417 8.82881 6.08962 10.6577 5.53094C11.0932 5.41921 11.5286 5.30747 11.9641 5.19573C12.4866 5.13987 13.0962 5.02813 13.6188 4.97226C14.1413 4.91639 14.5768 4.91639 15.0993 4.97226C15.4477 5.02813 15.709 5.02813 16.0573 5.084C16.5799 5.19573 17.0153 5.30747 17.4508 5.41921C18.3217 5.69855 19.1926 5.97789 19.9764 6.3131C20.9344 6.70417 21.8053 7.15112 22.7633 7.59806C23.6342 7.98914 24.5922 8.43608 25.5502 8.82716C26.5082 9.21824 27.4662 9.60931 28.4242 9.94452C30.3402 10.6149 32.3433 11.1736 34.3464 11.5647C36.4365 11.9558 38.7009 12.1234 40.9652 11.8999C42.0103 11.7882 42.9683 11.6206 43.9263 11.3971C44.8843 11.1178 45.7552 10.8384 46.539 10.4473C47.4099 10.0563 48.1938 9.55345 48.9776 9.05063C49.413 8.77129 49.7614 8.49195 50.1097 8.21261C50.6323 7.76567 51.1548 7.37459 51.6774 6.92765C52.287 6.42483 52.8966 5.86615 53.6805 5.36334C53.7676 5.36334 53.7676 5.30747 53.8546 5.30747C53.9417 5.30747 54.0288 5.2516 54.1159 5.2516H54.203C54.3772 5.2516 54.4643 5.30747 54.6385 5.30747C54.9868 5.41921 55.3352 5.53094 55.6835 5.69855C56.6415 6.14549 57.4254 6.70417 58.2092 7.26285C59.2543 7.93327 60.2993 8.65956 61.4315 9.27411C61.9541 9.55345 62.4766 9.77692 62.9992 10.0004C63.6088 10.2797 64.3055 10.4473 65.0022 10.6149C65.6119 10.7825 66.3086 10.8384 67.0053 10.9501C67.7891 11.006 68.66 11.0619 69.4439 11.006C70.1406 11.006 70.8373 10.8943 71.4469 10.8384C72.2308 10.7267 73.0146 10.5591 73.7984 10.3915C75.2789 10.0563 76.6724 9.60931 77.9787 9.16237C79.9818 8.49195 81.8107 7.65393 83.6396 6.87178C84.5105 6.4807 85.3814 6.08962 86.3394 5.69855C87.3845 5.2516 88.4296 4.86053 89.4747 4.41358C89.5618 4.35771 89.736 4.30184 89.8231 4.30184C90.1714 4.19011 90.5198 4.07837 90.8681 3.91077C91.3907 3.74316 91.9132 3.51969 92.5229 3.35209C92.61 3.29622 92.7841 3.29622 92.8712 3.24035C93.2196 3.12861 93.655 3.01688 94.0034 2.90514C94.613 2.73754 95.3098 2.51406 95.9194 2.34646C96.529 2.17886 97.2258 2.06712 97.9225 1.95538C98.0967 1.95538 98.1838 1.95538 98.3579 1.95538C98.445 1.95538 98.6192 1.95538 98.7063 1.95538C98.9676 2.01125 99.2288 2.06712 99.5772 2.12299C100.013 2.29059 100.448 2.4582 100.884 2.68167C102.19 3.40795 103.322 4.19011 104.541 4.91639C105.325 5.36334 106.109 5.81028 106.893 6.25723C107.677 6.6483 108.46 6.98351 109.244 7.37459C110.115 7.76567 110.986 8.04501 111.857 8.38022C112.641 8.65956 113.599 8.82716 114.47 8.9389C114.905 8.99477 115.254 8.99477 115.689 8.9389C116.212 8.9389 116.734 8.88303 117.257 8.77129C118.128 8.65956 118.998 8.49195 119.782 8.26848C120.74 7.98914 121.611 7.7098 122.482 7.37459C123.701 6.87178 124.746 6.3131 125.879 5.75442C126.488 5.41921 127.185 5.084 127.795 4.74879C128.317 4.46945 128.84 4.24598 129.362 3.96664C130.494 3.40795 131.627 2.96101 132.933 2.56993C133.543 2.40233 134.152 2.29059 134.849 2.23472C135.197 2.23472 135.459 2.17886 135.807 2.17886C136.068 2.17886 136.329 2.17886 136.678 2.23472C137.723 2.34646 138.681 2.51406 139.639 2.73754C140.423 2.96101 141.294 3.24035 142.077 3.46382C142.6 3.63143 143.035 3.79903 143.558 3.96664C143.993 4.13424 144.516 4.30184 145.038 4.46945C145.997 4.74879 146.954 5.02813 147.912 5.30747C148.958 5.58681 150.003 5.75441 151.048 5.92202C153.312 6.3131 155.576 6.53657 157.841 6.70417C158.973 6.81591 160.192 6.81591 161.324 6.81591C162.457 6.81591 163.589 6.70417 164.721 6.59244C166.724 6.42483 168.727 6.03376 170.643 5.53094C171.862 5.19573 172.995 4.80466 174.214 4.41358C175.607 3.96664 177.001 3.46382 178.481 3.01688C178.743 2.96101 179.091 2.90514 179.352 2.84927C179.526 2.84927 179.701 2.84927 179.875 2.84927C180.31 2.90514 180.659 2.96101 181.094 3.07275C182.4 3.46382 183.533 4.0225 184.752 4.52532C185.971 5.084 187.277 5.53094 188.584 5.97789C189.89 6.42483 191.284 6.76004 192.677 7.09525C194.245 7.43046 195.899 7.59806 197.554 7.65393C199.035 7.7098 200.515 7.59806 201.909 7.37459C203.128 7.20699 204.347 6.87178 205.479 6.53657C206.002 6.36896 206.437 6.25723 206.96 6.08962C207.308 5.97789 207.57 5.86615 207.918 5.75442C208.353 5.58681 208.876 5.47507 209.311 5.30747C211.663 4.69292 214.101 4.35771 216.627 4.13424C217.933 4.0225 219.327 3.96664 220.72 3.8549C221.852 3.79903 223.072 3.74316 224.204 3.68729C226.555 3.57556 228.994 3.46382 231.345 3.51969C232.303 3.51969 233 3.01688 233 2.4582C233 1.89952 232.216 1.3967 231.345 1.3967C229.516 1.3967 227.687 1.50844 225.946 1.56431C224.988 1.73191 224.117 1.78778 223.246 1.84365ZM179.091 2.90514C179.178 2.90514 179.178 2.90514 179.265 2.90514C179.178 2.90514 179.091 2.90514 179.091 2.90514Z" fill="#CF400B"/>
</svg>
